<?xml version="1.0" encoding="UTF-8" standalone="no"?>
<!-- Created with Inkscape (http://www.inkscape.org/) -->

<svg
   xmlns:dc="http://purl.org/dc/elements/1.1/"
   xmlns:cc="http://creativecommons.org/ns#"
   xmlns:rdf="http://www.w3.org/1999/02/22-rdf-syntax-ns#"
   xmlns:svg="http://www.w3.org/2000/svg"
   xmlns="http://www.w3.org/2000/svg"
   xmlns:sodipodi="http://sodipodi.sourceforge.net/DTD/sodipodi-0.dtd"
   xmlns:inkscape="http://www.inkscape.org/namespaces/inkscape"
   width="250mm"
   height="340mm"
   viewBox="0 0 885.82677 1204.7244"
   id="svg4250"
   version="1.1"
   inkscape:version="0.91 r13725"
   sodipodi:docname="simplecicada.svg">
  <defs
     id="defs4252" />
  <sodipodi:namedview
     id="base"
     pagecolor="#ffffff"
     bordercolor="#666666"
     borderopacity="1.0"
     inkscape:pageopacity="0.0"
     inkscape:pageshadow="2"
     inkscape:zoom="0.73901604"
     inkscape:cx="427.24879"
     inkscape:cy="216.79924"
     inkscape:document-units="px"
     inkscape:current-layer="layer1"
     showgrid="false"
     fit-margin-top="0"
     fit-margin-left="0"
     fit-margin-right="0"
     fit-margin-bottom="0"
     inkscape:window-width="1916"
     inkscape:window-height="1035"
     inkscape:window-x="4"
     inkscape:window-y="1"
     inkscape:window-maximized="1" />
  <metadata
     id="metadata4255">
    <rdf:RDF>
      <cc:Work
         rdf:about="">
        <dc:format>image/svg+xml</dc:format>
        <dc:type
           rdf:resource="http://purl.org/dc/dcmitype/StillImage" />
        <dc:title></dc:title>
      </cc:Work>
    </rdf:RDF>
  </metadata>
  <g
     inkscape:label="Layer 1"
     inkscape:groupmode="layer"
     id="layer1"
     transform="translate(650.6278,319.87007)">
    <path
       style="fill:none;fill-rule:evenodd;stroke:#000000;stroke-width:21.55025101;stroke-linecap:round;stroke-linejoin:round;stroke-miterlimit:4;stroke-dasharray:none;stroke-opacity:1"
       d="m -261.82915,-278.43809 c -3.0199,6.75154 -7.17537,13.22742 -6.66935,21.21544 1.30286,6.83156 4.13463,13.58233 7.97685,19.02834 4.82824,6.53844 16.25339,20.82237 16.25339,20.82237"
       id="path4892"
       inkscape:connector-curvature="0"
       sodipodi:nodetypes="cccc" />
    <path
       inkscape:connector-curvature="0"
       style="opacity:1;fill:#000000;fill-opacity:1;fill-rule:evenodd;stroke:#000000;stroke-width:1.51060665px;stroke-linecap:butt;stroke-linejoin:miter;stroke-opacity:1"
       d="m -374.76539,7.414973 c -0.88471,0.04294 -1.91423,0.42216 -3.08654,1.353144 -104.0676,221.714423 -214.28968,487.764703 -132.39035,693.122233 87.02405,230.02832 179.82001,223.81302 277.80971,5.15549 82.87879,-213.43219 -76.48971,-530.84556 -138.32702,-696.874918 0,0 -1.35165,-2.884881 -4.0058,-2.755949 z m -7.05053,55.861592 c 4.83317,-0.131991 12.15096,4.042245 12.15096,4.042245 51.26568,140.91037 167.57564,436.10017 106.2363,619.24749 -81.45676,185.65796 -150.21097,163.22714 -222.35913,-31.999 -67.9045,-174.28597 14.63761,-402.14973 101.14201,-590.405406 0.73032,-0.593109 1.7145,-0.854866 2.82986,-0.885329 z"
       id="path4809" />
    <path
       style="fill:#000000;fill-opacity:1;fill-rule:evenodd;stroke:#000000;stroke-width:1.51060665px;stroke-linecap:butt;stroke-linejoin:miter;stroke-opacity:1"
       d="m -359.11405,160.02451 25.11305,218.98243 33.81894,49.74109 5.61997,19.3538 7.1134,-41.75294 -38.20151,-119.7262 -25.01254,-98.44046 z"
       id="path4813"
       inkscape:connector-curvature="0" />
    <path
       style="fill:#000000;fill-opacity:1;fill-rule:evenodd;stroke:#000000;stroke-width:1.51060665px;stroke-linecap:butt;stroke-linejoin:miter;stroke-opacity:1"
       d="m -324.28339,417.67732 -8.50772,36.47801 18.4676,54.60677 26.71932,28.6042 11.33903,-27.67407 -20.45929,-35.43901 -14.66864,-23.06884 -11.49596,-28.23213 z"
       id="path4815"
       inkscape:connector-curvature="0" />
    <path
       style="fill:#000000;fill-opacity:1;fill-rule:evenodd;stroke:#000000;stroke-width:1.51060665px;stroke-linecap:butt;stroke-linejoin:miter;stroke-opacity:1"
       d="m -327.31289,541.6367 26.42063,40.82553 18.42493,56.35268 14.34104,-25.85375 -24.38626,-61.73922 -25.49566,-16.34564 z"
       id="path4817"
       inkscape:connector-curvature="0" />
    <path
       style="fill:#000000;fill-opacity:1;fill-rule:evenodd;stroke:#000000;stroke-width:1.51060665px;stroke-linecap:butt;stroke-linejoin:miter;stroke-opacity:1"
       d="m -349.56428,579.52577 39.90827,49.88991 21.42694,58.173 -20.00368,8.24587 -44.30461,-56.98516 -20.33128,-40.67673 z"
       id="path4819"
       inkscape:connector-curvature="0" />
    <path
       style="fill:#000000;fill-opacity:1;fill-rule:evenodd;stroke:#000000;stroke-width:1.51060665px;stroke-linecap:butt;stroke-linejoin:miter;stroke-opacity:1"
       d="m -390.72371,643.15698 -28.5114,44.72388 48.53026,71.06404 19.44898,14.45092 9.60336,-18.98175 -22.82126,-63.44791 z"
       id="path4821"
       inkscape:connector-curvature="0" />
    <path
       style="fill:#000000;fill-opacity:1;fill-rule:evenodd;stroke:#000000;stroke-width:1.51060665px;stroke-linecap:butt;stroke-linejoin:miter;stroke-opacity:1"
       d="m -385.26349,232.75729 -13.89918,132.42848 26.97674,205.05239 20.13169,-13.48359 8.76373,-46.95346 -24.04491,-75.70647 -1.79352,-113.59555 0.14177,-68.12756 z"
       id="path4823"
       inkscape:connector-curvature="0" />
    <path
       style="fill:#000000;fill-opacity:1;fill-rule:evenodd;stroke:#000000;stroke-width:1.51060665px;stroke-linecap:butt;stroke-linejoin:miter;stroke-opacity:1"
       d="m -428.77113,205.48976 -20.79923,165.45187 15.266,-1.37385 11.59506,-38.14951 10.25715,-108.0602 8.42238,-32.98619 8.25171,-26.00258 z"
       id="path4825"
       inkscape:connector-curvature="0" />
    <path
       style="fill:#000000;fill-opacity:1;fill-rule:evenodd;stroke:#000000;stroke-width:1.51060665px;stroke-linecap:butt;stroke-linejoin:miter;stroke-opacity:1"
       d="m -469.83006,389.66294 27.13224,74.03498 8.99225,68.3508 13.81525,57.98696 16.07673,-34.54608 4.99368,-17.34746 -20.65888,-89.59932 -3.62828,-38.52156 -25.32498,-23.32927 z"
       id="path4827"
       inkscape:connector-curvature="0" />
    <path
       style="fill:#000000;fill-opacity:1;fill-rule:evenodd;stroke:#000000;stroke-width:1.51060665px;stroke-linecap:butt;stroke-linejoin:miter;stroke-opacity:1"
       d="m -489.9755,466.03637 10.7995,119.0565 25.43923,80.9814 24.74137,-15.11787 12.64803,-18.90734 -23.88798,-19.80026 -11.90891,-73.66292 -15.63627,-45.80282 z"
       id="path4829"
       inkscape:connector-curvature="0" />
    <g
       id="g4835"
       transform="matrix(1.4101528,0.03446339,-0.03952475,1.6172506,-18.764938,-552.82189)">
      <path
         inkscape:connector-curvature="0"
         style="fill:#000000;fill-opacity:1;fill-rule:evenodd;stroke:#000000;stroke-width:1px;stroke-linecap:butt;stroke-linejoin:miter;stroke-opacity:1"
         d="m 27.287109,346.18555 c -0.62627,0.0399 -1.34934,0.28979 -2.164062,0.88281 -69.9145,138.58329 -143.422877,304.65751 -81.822266,430.32422 C 8.9607003,918.22756 74.619379,912.98526 140.2793,776.38281 195.32033,643.23765 76.874898,449.49442 30.173828,347.82812 c 0,0 -1.007908,-1.76233 -2.886719,-1.64257 z m -2.191406,36.35351 c 3.310348,-0.0289 6.84375,0.58789 6.84375,0.58789 38.77367,86.30332 126.317737,266.96152 86.017577,381.06641 C 63.442751,880.15356 14.32678,867.33244 -40.1875,747.7793 -91.331532,641.10234 -37.857197,501.20227 20.189453,383.56055 c 1.014638,-0.75511 2.920041,-1.00416 4.90625,-1.02149 z"
         transform="translate(-21.591047,2.1591047)"
         id="path4831" />
    </g>
    <path
       style="fill:#000000;fill-opacity:1;fill-rule:evenodd;stroke:#000000;stroke-width:1.51060665px;stroke-linecap:butt;stroke-linejoin:miter;stroke-opacity:1"
       d="m -7.326944,163.38114 7.370821,134.69525 19.221889,86.07029 38.769966,34.13957 -35.54087,-103.93862 0.09909,-66.38166 z"
       id="path4841"
       inkscape:connector-curvature="0" />
    <path
       style="fill:#000000;fill-opacity:1;fill-rule:evenodd;stroke:#000000;stroke-width:1.51060665px;stroke-linecap:butt;stroke-linejoin:miter;stroke-opacity:1"
       d="m -52.669356,211.18758 7.114807,145.17069 16.206139,147.13984 7.939269,49.1086 13.003134,-95.76443 -16.77459,-61.55319 19.206725,-37.96348 -19.989932,-54.64398 -5.776901,-75.26001 z"
       id="path4843"
       inkscape:connector-curvature="0" />
    <path
       style="fill:#000000;fill-opacity:1;fill-rule:evenodd;stroke:#000000;stroke-width:1.51060665px;stroke-linecap:butt;stroke-linejoin:miter;stroke-opacity:1"
       d="m -87.05675,247.03311 -21.8522,146.2097 -2.46105,38.37274 22.835,0.55808 14.255703,-22.36194 5.463051,-36.55243 -8.650892,-82.31805 0.725374,-29.68041 z"
       id="path4845"
       inkscape:connector-curvature="0" />
    <path
       style="fill:#000000;fill-opacity:1;fill-rule:evenodd;stroke:#000000;stroke-width:1.51060665px;stroke-linecap:butt;stroke-linejoin:miter;stroke-opacity:1"
       d="m -71.917335,437.82061 -57.521085,47.50879 13.72992,61.4788 25.3814,-41.30649 22.3794,-43.1268 z"
       id="path4847"
       inkscape:connector-curvature="0" />
    <path
       style="fill:#000000;fill-opacity:1;fill-rule:evenodd;stroke:#000000;stroke-width:1.51060665px;stroke-linecap:butt;stroke-linejoin:miter;stroke-opacity:1"
       d="m -69.057095,507.76848 -35.838135,95.20636 6.20359,57.80095 33.846443,-76.0386 13.160057,-39.8582 z"
       id="path4849"
       inkscape:connector-curvature="0" />
    <path
       style="fill:#000000;fill-opacity:1;fill-rule:evenodd;stroke:#000000;stroke-width:1.51060665px;stroke-linecap:butt;stroke-linejoin:miter;stroke-opacity:1"
       d="m -40.957217,604.53745 c 0,0 -55.415133,85.99317 -51.018803,93.08841 4.39632,7.09524 14.92465,12.59339 14.92465,12.59339 l 38.456117,-77.67288 11.040357,-15.45272 z"
       id="path4851"
       inkscape:connector-curvature="0" />
    <path
       style="fill:#000000;fill-opacity:1;fill-rule:evenodd;stroke:#000000;stroke-width:1.51060665px;stroke-linecap:butt;stroke-linejoin:miter;stroke-opacity:1"
       d="m -18.135961,667.98537 -40.234465,88.11111 34.544317,20.0607 21.526018,-8.20866 6.345349,-10.32663 -1.721928,-54.19751 0.42669,-17.45906 -1.308988,-8.76674 z"
       id="path4853"
       inkscape:connector-curvature="0" />
    <path
       style="fill:#000000;fill-opacity:1;fill-rule:evenodd;stroke:#000000;stroke-width:1.51060665px;stroke-linecap:butt;stroke-linejoin:miter;stroke-opacity:1"
       d="m 62.076953,502.23859 -52.754487,101.78073 11.695559,82.39246 10.144308,21.21131 8.593056,-39.96983 21.667777,-76.33623 2.333045,-33.13501 8.422386,-32.98621 z"
       id="path4855"
       inkscape:connector-curvature="0" />
    <path
       style="fill:#000000;fill-opacity:1;fill-rule:evenodd;stroke:#000000;stroke-width:1.51060665px;stroke-linecap:butt;stroke-linejoin:miter;stroke-opacity:1"
       d="m 19.977389,417.35612 -16.51716,114.89499 37.773412,-49.73837 5.335044,-31.31471 0.42669,-17.45906 z"
       id="path4857"
       inkscape:connector-curvature="0"
       sodipodi:nodetypes="cccccc" />
    <path
       style="fill:#000000;fill-opacity:1;fill-rule:evenodd;stroke:#000000;stroke-width:1.51060665px;stroke-linecap:butt;stroke-linejoin:miter;stroke-opacity:1"
       d="m -342.58314,-17.760335 c 54.65404,80.292693 52.89701,97.345692 87.88242,178.527145 29.01736,78.90843 39.89062,153.92949 49.71407,237.11571 l 6.08933,0.14882 c 16.81253,-79.39466 35.34641,-159.07493 59.17001,-239.63294 C -124.92553,98.96954 -101.03163,48.547181 -70.213402,-5.8629093 -155.05159,-23.169359 -244.90635,-28.041827 -342.58314,-17.760335 Z"
       id="path4859"
       inkscape:connector-curvature="0"
       sodipodi:nodetypes="ccccccc" />
    <path
       style="fill:#000000;fill-opacity:1;fill-rule:evenodd;stroke:#000000;stroke-width:1.51060665px;stroke-linecap:butt;stroke-linejoin:miter;stroke-opacity:1"
       d="m -269.81121,-190.67679 c -1.69777,41.03736 -11.42077,78.77986 -84.46748,90.524 l -8.72106,45.207543 c 103.13285,-20.401444 203.40001,-15.187151 301.336736,10.858402 l -16.987934,-52.82366 c -46.291922,-5.197105 -85.209142,-11.016595 -93.688232,-93.131065 z"
       id="path4861"
       inkscape:connector-curvature="0"
       sodipodi:nodetypes="ccccccc" />
    <path
       style="fill:none;fill-rule:evenodd;stroke:#000000;stroke-width:33.23334885;stroke-linecap:round;stroke-linejoin:round;stroke-miterlimit:4;stroke-dasharray:none;stroke-opacity:1"
       d="m -488.71201,102.70176 c -52.06902,-33.673576 -105.23572,16.61365 -103.18265,80.46672 l -1.09905,9.82719 -0.23218,10.22184"
       id="path4863"
       inkscape:connector-curvature="0" />
    <path
       style="fill:none;fill-rule:evenodd;stroke:#000000;stroke-width:33.23334885;stroke-linecap:round;stroke-linejoin:round;stroke-miterlimit:4;stroke-dasharray:none;stroke-opacity:1"
       d="m -541.82159,281.33958 c -57.24073,-19.78561 -75.90418,52.53372 -77.18659,103.60825 l -0.10185,11.02879 1.10156,11.02832"
       id="path4865"
       inkscape:connector-curvature="0" />
    <path
       style="fill:none;fill-rule:evenodd;stroke:#000000;stroke-width:33.23334885;stroke-linecap:round;stroke-linejoin:round;stroke-miterlimit:4;stroke-dasharray:none;stroke-opacity:1"
       d="m -488.45882,-279.62093 c 61.7066,24.89543 40.79086,105.70014 57.13371,163.28027 -0.53539,11.46917 29.52004,33.280523 23.33805,34.344751"
       id="path4867"
       inkscape:connector-curvature="0"
       sodipodi:nodetypes="ccc" />
    <path
       inkscape:connector-curvature="0"
       id="path4878"
       d="M 59.298334,86.396697 C 112.95015,55.306887 163.59686,108.13126 158.42702,171.80781 l 0.61769,9.86914 -0.26743,10.22098"
       style="fill:none;fill-rule:evenodd;stroke:#000000;stroke-width:33.23334885;stroke-linecap:round;stroke-linejoin:round;stroke-miterlimit:4;stroke-dasharray:none;stroke-opacity:1" />
    <path
       inkscape:connector-curvature="0"
       id="path4880"
       d="m 132.24376,280.34389 c 58.13891,-16.96579 73.24729,56.1789 72.03319,107.2551 l -0.43702,11.0206 -1.63898,10.96135"
       style="fill:none;fill-rule:evenodd;stroke:#000000;stroke-width:33.23334885;stroke-linecap:round;stroke-linejoin:round;stroke-miterlimit:4;stroke-dasharray:none;stroke-opacity:1" />
    <path
       sodipodi:nodetypes="ccc"
       inkscape:connector-curvature="0"
       id="path4882"
       d="m 57.645159,-278.25004 c -62.849067,21.85136 -45.905588,103.58133 -65.041703,160.29437 -0.02551,11.48163 -31.110547,31.798746 -24.987918,33.163693"
       style="fill:none;fill-rule:evenodd;stroke:#000000;stroke-width:33.23334885;stroke-linecap:round;stroke-linejoin:round;stroke-miterlimit:4;stroke-dasharray:none;stroke-opacity:1" />
    <ellipse
       style="opacity:1;fill:#000000;fill-opacity:1;stroke:none;stroke-width:22;stroke-linecap:round;stroke-linejoin:round;stroke-miterlimit:4;stroke-dasharray:none;stroke-opacity:1"
       id="path4884"
       cx="-334.53946"
       cy="-158.70456"
       rx="34.262737"
       ry="41.041058"
       transform="matrix(0.99970149,0.02443218,-0.02443218,0.99970149,0,0)" />
    <ellipse
       ry="41.041058"
       rx="34.262737"
       cy="-162.19742"
       cx="-109.16679"
       id="ellipse4888"
       style="opacity:1;fill:#000000;fill-opacity:1;stroke:none;stroke-width:22;stroke-linecap:round;stroke-linejoin:round;stroke-miterlimit:4;stroke-dasharray:none;stroke-opacity:1"
       transform="matrix(0.99970149,0.02443218,-0.02443218,0.99970149,0,0)" />
    <path
       style="fill:#000000;fill-opacity:1;fill-rule:evenodd;stroke:#000000;stroke-width:1.51060665px;stroke-linecap:butt;stroke-linejoin:miter;stroke-opacity:1"
       d="m -32.310569,126.08462 -22.379398,43.1268 -14.682391,39.821 24.698692,-13.37198 13.743673,-1.41105 -0.839629,-27.97172 5.036361,-19.09335 z"
       id="path4890"
       inkscape:connector-curvature="0" />
    <path
       style="fill:none;fill-rule:evenodd;stroke:#000000;stroke-width:21.55025101;stroke-linecap:round;stroke-linejoin:round;stroke-miterlimit:4;stroke-dasharray:none;stroke-opacity:1"
       d="m -165.32525,-277.08676 c 2.68647,6.891 6.52065,13.56214 5.62501,21.51591 -1.63506,6.75973 -4.7932,13.36413 -8.89687,18.61595 -5.14187,6.29474 -10.17593,12.36258 -17.25116,20.00354"
       id="path4898"
       inkscape:connector-curvature="0"
       sodipodi:nodetypes="cccc" />
    <text
       xml:space="preserve"
       style="font-style:normal;font-weight:normal;font-size:34.46645355px;line-height:125%;font-family:sans-serif;letter-spacing:0px;word-spacing:0px;writing-mode:tb-rl;fill:#e6e6e6;fill-opacity:1;stroke:none;stroke-width:1px;stroke-linecap:butt;stroke-linejoin:miter;stroke-opacity:1"
       x="-409.07114"
       y="926.49109"
       id="text4993"
       sodipodi:linespacing="125%"
       transform="scale(0.99624465,1.0037695)"><tspan
         sodipodi:role="line"
         id="tspan4995"
         x="-409.07114"
         y="926.49109"
         style="writing-mode:lr-tb;fill:#e6e6e6">j4p4n on openclipart.org</tspan></text>
  </g>
</svg>
